<svg xmlns="http://www.w3.org/2000/svg" viewBox="0 0 512 512" width="512" height="512">
  <!-- Background gradient -->
  <defs>
    <radialGradient id="bg" cx="50%" cy="40%" r="70%">
      <stop offset="0%" style="stop-color:#fdf2f8"/>
      <stop offset="100%" style="stop-color:#be185d"/>
    </radialGradient>
    <linearGradient id="camera" x1="0%" y1="0%" x2="100%" y2="100%">
      <stop offset="0%" style="stop-color:#374151"/>
      <stop offset="100%" style="stop-color:#1f2937"/>
    </linearGradient>
    <linearGradient id="heart" x1="0%" y1="0%" x2="100%" y2="100%">
      <stop offset="0%" style="stop-color:#fce7f3"/>
      <stop offset="100%" style="stop-color:#ec4899"/>
    </linearGradient>
  </defs>
  
  <!-- Background circle -->
  <circle cx="256" cy="256" r="240" fill="url(#bg)" stroke="#be185d" stroke-width="8"/>
  
  <!-- Camera body -->
  <rect x="140" y="190" width="232" height="160" rx="20" fill="url(#camera)"/>
  
  <!-- Camera lens outer ring -->
  <circle cx="256" cy="270" r="60" fill="#6b7280" stroke="#374151" stroke-width="4"/>
  
  <!-- Camera lens -->
  <circle cx="256" cy="270" r="45" fill="#1f2937" stroke="#9ca3af" stroke-width="2"/>
  
  <!-- Camera lens reflection -->
  <circle cx="245" cy="260" r="15" fill="#f3f4f6" opacity="0.6"/>
  
  <!-- Camera flash -->
  <rect x="320" y="200" width="30" height="20" rx="4" fill="#fbbf24"/>
  
  <!-- Camera viewfinder -->
  <rect x="200" y="200" width="40" height="15" rx="3" fill="#374151"/>
  
  <!-- Wedding heart overlay -->
  <g transform="translate(180, 140)">
    <path d="M72 25c-20 0-36 16-36 36 0 25 36 47 36 47s36-22 36-47c0-20-16-36-36-36z" 
          fill="url(#heart)" stroke="#be185d" stroke-width="3"/>
    <path d="M50 40c-8 0-15 7-15 15 0 10 15 20 15 20s15-10 15-20c0-8-7-15-15-15z" 
          fill="#fdf2f8" opacity="0.8"/>
  </g>
  
  <!-- Camera button -->
  <circle cx="180" cy="220" r="8" fill="#9ca3af" stroke="#374151" stroke-width="2"/>
  
  <!-- Sparkle effects -->
  <g fill="#fbbf24" opacity="0.8">
    <circle cx="350" cy="150" r="3"/>
    <circle cx="380" cy="180" r="2"/>
    <circle cx="120" cy="160" r="2"/>
    <circle cx="150" cy="350" r="3"/>
    <circle cx="370" cy="380" r="2"/>
  </g>
  
  <!-- Wedding rings -->
  <g transform="translate(320, 320)" opacity="0.9">
    <circle cx="0" cy="0" r="12" fill="none" stroke="#fbbf24" stroke-width="3"/>
    <circle cx="15" cy="8" r="10" fill="none" stroke="#fbbf24" stroke-width="3"/>
  </g>
</svg>